<svg width="28" height="20" viewBox="0 0 28 20" fill="none" xmlns="http://www.w3.org/2000/svg">
<g clip-path="url(#clip0_454_1581)">
<path d="M0 -0.000244141H28V20.479H0V-0.000244141Z" fill="white"/>
<path d="M0 0H28V7H0V0Z" fill="#179900"/>
<path d="M0 13H28V20H0V13Z" fill="black"/>
<path d="M6.47214 9.33682L6 8L5.52792 9.33682H4L5.23609 10.1631L4.76396 11.5L6 10.6738L7.23609 11.5L6.76396 10.1631L8 9.33682H6.47214Z" fill="#D80027"/>
<path d="M14.4721 9.33682L14 8L13.5279 9.33682H12L13.2361 10.1631L12.764 11.5L14 10.6738L15.2361 11.5L14.764 10.1631L16 9.33682H14.4721Z" fill="#D80027"/>
<path d="M22.4721 9.33682L22 8L21.5279 9.33682H20L21.2361 10.1631L20.764 11.5L22 10.6738L23.2361 11.5L22.764 10.1631L24 9.33682H22.4721Z" fill="#D80027"/>
</g>
<defs>
<clipPath id="clip0_454_1581">
<rect width="28" height="20" rx="2" fill="white"/>
</clipPath>
</defs>
</svg>
