<svg width="40" height="40" viewBox="0 0 40 40" fill="none" xmlns="http://www.w3.org/2000/svg">
<rect width="40" height="40" rx="20" fill="#0B2232"/>
<path d="M19.458 10.0157C20.1239 9.97967 20.6234 10.3782 20.8477 10.8473C21.0629 11.2977 21.0617 11.869 20.7613 12.3482C20.1625 13.3068 19.9064 14.4397 20.0342 15.5626C20.1621 16.686 20.6668 17.7333 21.4663 18.5328C22.2658 19.3322 23.3127 19.837 24.4361 19.9649C25.5595 20.0929 26.6931 19.8362 27.6519 19.2369C28.1297 18.9383 28.6995 18.9354 29.1509 19.1505C29.5921 19.3608 29.9698 19.8134 29.9854 20.4176L29.9834 20.5401C29.8792 22.4691 29.2189 24.3268 28.0816 25.8883C26.9442 27.4499 25.3788 28.6485 23.5747 29.3395C21.7707 30.0304 19.805 30.1841 17.9156 29.7818C16.0261 29.3795 14.2934 28.4383 12.9273 27.0724C11.5612 25.7064 10.6198 23.974 10.2173 22.0846C9.8148 20.1952 9.96848 18.2295 10.6592 16.4254C11.35 14.6213 12.5484 13.0556 14.1099 11.9181C15.6714 10.7806 17.529 10.1201 19.458 10.0157ZM18.6206 12.1212C17.4203 12.331 16.2793 12.8124 15.2876 13.5348C14.0385 14.4448 13.0795 15.697 12.5269 17.1402C11.9743 18.5835 11.8519 20.1561 12.1739 21.6676C12.4959 23.1791 13.2486 24.5651 14.3413 25.6578C15.4342 26.7506 16.8205 27.5034 18.3321 27.8253C19.8437 28.1472 21.4161 28.0245 22.8594 27.4718C24.3027 26.919 25.555 25.9598 26.4649 24.7106C27.187 23.719 27.6677 22.5781 27.8775 21.378C26.734 21.8933 25.4676 22.0955 24.21 21.9523C22.6373 21.7731 21.1716 21.0661 20.0523 19.9469C18.933 18.8276 18.226 17.3619 18.0469 15.7892C17.9037 14.5314 18.1053 13.2647 18.6206 12.1212Z" fill="#F7F9FC"/>
</svg>
