<svg width="48" height="48" viewBox="0 0 48 48" fill="none" xmlns="http://www.w3.org/2000/svg">
<path d="M0 24C0 37.2548 10.7452 48 24 48C37.2548 48 48 37.2548 48 24C48 10.7452 37.2548 0 24 0C10.7452 0 0 10.7452 0 24Z" fill="white"/>
<path d="M48 24C48 10.8 37.2 0 24 0C10.8 0 0 10.8 0 24C0 36 8.7 45.9 20.1 47.7V30.9H14.1V24H20.1V18.6C20.1 12.6 23.7 9.3 29.1 9.3C31.8 9.3 34.5 9.9 34.5 9.9V15.9H31.5C28.5 15.9 27.6 17.7 27.6 19.5V24H34.2L33 30.9H27.3V48C39.3 46.2 48 36 48 24Z" fill="#1877F2"/>
</svg>
