<svg width="32" height="32" viewBox="0 0 32 32" fill="none" xmlns="http://www.w3.org/2000/svg">
<ellipse cx="18.25" cy="3.63599" rx="3.75" ry="3.63599" fill="#2899E5"/>
<path d="M24.0181 28.616C24.5601 29.4506 24.3257 30.581 23.417 30.9865C22.0834 31.5816 20.6445 31.9235 19.1743 31.9885C17.1011 32.0802 15.041 31.6179 13.2066 30.6493C11.3723 29.6807 9.83017 28.241 8.73961 26.4787C7.64904 24.7165 7.04951 22.6957 7.00294 20.6249C6.95636 18.5541 7.46442 16.5085 8.47466 14.6992C9.4849 12.8899 10.9607 11.3825 12.7497 10.3327C14.5386 9.28296 16.5759 8.72882 18.6511 8.72754C20.1228 8.72663 21.5758 9.00379 22.935 9.53871C23.8608 9.90308 24.1457 11.0217 23.6418 11.8796C23.139 12.7354 22.0399 13.0004 21.0936 12.7008C20.3077 12.452 19.4849 12.324 18.6534 12.3246C17.2196 12.3254 15.8121 12.7083 14.5762 13.4335C13.3402 14.1588 12.3206 15.2002 11.6227 16.4502C10.9247 17.7002 10.5737 19.1135 10.6059 20.5442C10.6381 21.9748 11.0523 23.371 11.8057 24.5884C12.5592 25.8059 13.6246 26.8006 14.8919 27.4698C16.1592 28.139 17.5825 28.4584 19.0148 28.395C19.8455 28.3583 20.6617 28.1936 21.4355 27.9099C22.3675 27.5682 23.4775 27.7836 24.0181 28.616Z" fill="#2899E5"/>
<rect x="12.9998" y="18.4243" width="10.5" height="3.87873" rx="1.93937" fill="#FF7E1C"/>
</svg>
