<svg width="48" height="48" viewBox="0 0 48 48" fill="none" xmlns="http://www.w3.org/2000/svg">
<g clip-path="url(#clip0_215_10247)">
<path d="M24.0078 0C13.9881 0 11.0577 0.0103393 10.488 0.0576049C8.43181 0.228573 7.1523 0.552416 5.75834 1.24663C4.68408 1.78021 3.83686 2.39873 3.00071 3.26575C1.47792 4.84693 0.555014 6.79221 0.220923 9.10452C0.0584916 10.2271 0.0112389 10.456 0.00164072 16.1899C-0.0020509 18.1012 0.00164072 20.6166 0.00164072 23.9906C0.00164072 34.005 0.0127156 36.9332 0.0607065 37.5019C0.226829 39.5033 0.540616 40.7625 1.20511 42.1398C2.47502 44.7763 4.90041 46.7556 7.75772 47.4941C8.74707 47.7489 9.83979 47.8892 11.2426 47.9557C11.837 47.9815 17.8949 48 23.9565 48C30.0182 48 36.0798 47.9926 36.6594 47.9631C38.2837 47.8866 39.2269 47.76 40.2698 47.4904C41.6865 47.127 43.0069 46.4586 44.1387 45.5319C45.2705 44.6052 46.1864 43.4425 46.8224 42.125C47.4739 40.7809 47.8044 39.4737 47.9539 37.5768C47.9863 37.1633 48 30.5694 48 23.9843C48 17.3981 47.9852 10.8164 47.9528 10.4029C47.8014 8.4753 47.471 7.17919 46.7984 5.80923C46.2465 4.68778 45.6337 3.8503 44.744 2.99398C43.1566 1.47705 41.2148 0.553893 38.9005 0.22008C37.7794 0.0579741 37.5561 0.00997007 31.8193 0H24.0078Z" fill="url(#paint0_radial_215_10247)"/>
<path d="M24.0078 0C13.9881 0 11.0577 0.0103393 10.488 0.0576049C8.43181 0.228573 7.1523 0.552416 5.75834 1.24663C4.68408 1.78021 3.83686 2.39873 3.00071 3.26575C1.47792 4.84693 0.555014 6.79221 0.220923 9.10452C0.0584916 10.2271 0.0112389 10.456 0.00164072 16.1899C-0.0020509 18.1012 0.00164072 20.6166 0.00164072 23.9906C0.00164072 34.005 0.0127156 36.9332 0.0607065 37.5019C0.226829 39.5033 0.540616 40.7625 1.20511 42.1398C2.47502 44.7763 4.90041 46.7556 7.75772 47.4941C8.74707 47.7489 9.83979 47.8892 11.2426 47.9557C11.837 47.9815 17.8949 48 23.9565 48C30.0182 48 36.0798 47.9926 36.6594 47.9631C38.2837 47.8866 39.2269 47.76 40.2698 47.4904C41.6865 47.127 43.0069 46.4586 44.1387 45.5319C45.2705 44.6052 46.1864 43.4425 46.8224 42.125C47.4739 40.7809 47.8044 39.4737 47.9539 37.5768C47.9863 37.1633 48 30.5694 48 23.9843C48 17.3981 47.9852 10.8164 47.9528 10.4029C47.8014 8.4753 47.471 7.17919 46.7984 5.80923C46.2465 4.68778 45.6337 3.8503 44.744 2.99398C43.1566 1.47705 41.2148 0.553893 38.9005 0.22008C37.7794 0.0579741 37.5561 0.00997007 31.8193 0H24.0078Z" fill="url(#paint1_radial_215_10247)"/>
<path d="M24.0012 7C19.3843 7 18.8049 7.02019 16.9915 7.10271C15.1817 7.18558 13.9463 7.4721 12.8654 7.8925C11.7473 8.32671 10.7988 8.90754 9.85391 9.85281C8.90827 10.7977 8.32743 11.7462 7.8918 12.8639C7.47034 13.9452 7.18346 15.1809 7.102 16.99C7.02125 18.8033 7 19.3831 7 24C7 28.6169 7.02054 29.1946 7.10271 31.0079C7.18594 32.8177 7.47246 34.053 7.89251 35.1339C8.32708 36.252 8.90792 37.2005 9.8532 38.1454C10.7978 39.091 11.7462 39.6733 12.8636 40.1075C13.9453 40.5279 15.181 40.8144 16.9904 40.8973C18.8038 40.9798 19.3829 41 23.9995 41C28.6168 41 29.1944 40.9798 31.0078 40.8973C32.8176 40.8144 34.0544 40.5279 35.136 40.1075C36.2538 39.6733 37.2008 39.091 38.1454 38.1454C39.091 37.2005 39.6719 36.252 40.1075 35.1343C40.5254 34.053 40.8123 32.8173 40.8973 31.0082C40.9788 29.1949 41 28.6169 41 24C41 19.3831 40.9788 18.8037 40.8973 16.9903C40.8123 15.1805 40.5254 13.9452 40.1075 12.8643C39.6719 11.7462 39.091 10.7977 38.1454 9.85281C37.1998 8.90719 36.2541 8.32635 35.1349 7.8925C34.0512 7.4721 32.8151 7.18558 31.0053 7.10271C29.192 7.02019 28.6147 7 23.9963 7H24.0012ZM22.4762 10.0635C22.9288 10.0628 23.4339 10.0635 24.0012 10.0635C28.5403 10.0635 29.0783 10.0798 30.8707 10.1613C32.5282 10.2371 33.4278 10.514 34.0271 10.7467C34.8204 11.0549 35.386 11.4232 35.9807 12.0182C36.5757 12.6132 36.944 13.1799 37.2529 13.9732C37.4856 14.5717 37.7629 15.4713 37.8383 17.1288C37.9198 18.9209 37.9375 19.4592 37.9375 23.9961C37.9375 28.533 37.9198 29.0713 37.8383 30.8634C37.7625 32.5209 37.4856 33.4205 37.2529 34.019C36.9447 34.8124 36.5757 35.3772 35.9807 35.9719C35.3857 36.5669 34.8208 36.9352 34.0271 37.2434C33.4285 37.4771 32.5282 37.7534 30.8707 37.8291C29.0786 37.9106 28.5403 37.9283 24.0012 37.9283C19.4618 37.9283 18.9239 37.9106 17.1318 37.8291C15.4742 37.7526 14.5746 37.4757 13.975 37.243C13.1817 36.9349 12.615 36.5665 12.02 35.9715C11.425 35.3765 11.0567 34.8113 10.7478 34.0176C10.5151 33.4191 10.2378 32.5195 10.1624 30.862C10.0809 29.0699 10.0646 28.5316 10.0646 23.9919C10.0646 19.4521 10.0809 18.9166 10.1624 17.1246C10.2382 15.4671 10.5151 14.5675 10.7478 13.9682C11.056 13.1749 11.425 12.6082 12.02 12.0132C12.615 11.4182 13.1817 11.0499 13.975 10.7411C14.5743 10.5073 15.4742 10.2311 17.1318 10.1549C18.7 10.0841 19.3078 10.0628 22.4762 10.0593V10.0635ZM33.0758 12.8862C32.6723 12.8862 32.2778 13.0059 31.9423 13.2301C31.6068 13.4543 31.3454 13.7729 31.191 14.1457C31.0366 14.5185 30.9963 14.9288 31.075 15.3245C31.1538 15.7202 31.3482 16.0837 31.6335 16.369C31.9189 16.6543 32.2825 16.8485 32.6782 16.9271C33.074 17.0058 33.4842 16.9653 33.857 16.8108C34.2297 16.6562 34.5483 16.3947 34.7724 16.0591C34.9964 15.7235 35.116 15.329 35.1158 14.9255C35.1158 13.7993 34.2021 12.8855 33.0758 12.8855V12.8862ZM24.0012 15.2698C19.1799 15.2698 15.2709 19.1787 15.2709 24C15.2709 28.8213 19.1799 32.7284 24.0012 32.7284C28.8226 32.7284 32.7305 28.8213 32.7305 24C32.7305 19.1787 28.8222 15.2698 24.0009 15.2698H24.0012ZM24.0012 18.3333C27.1307 18.3333 29.668 20.8702 29.668 24C29.668 27.1294 27.1307 29.6667 24.0012 29.6667C20.8714 29.6667 18.3345 27.1294 18.3345 24C18.3345 20.8702 20.8714 18.3333 24.0012 18.3333Z" fill="white"/>
</g>
<defs>
<radialGradient id="paint0_radial_215_10247" cx="0" cy="0" r="1" gradientUnits="userSpaceOnUse" gradientTransform="translate(12.7501 51.697) rotate(-90) scale(47.5715 44.2453)">
<stop stop-color="#FFDD55"/>
<stop offset="0.1" stop-color="#FFDD55"/>
<stop offset="0.5" stop-color="#FF543E"/>
<stop offset="1" stop-color="#C837AB"/>
</radialGradient>
<radialGradient id="paint1_radial_215_10247" cx="0" cy="0" r="1" gradientTransform="matrix(4.17378 20.851 -85.947 17.2138 -8.04025 3.45784)" gradientUnits="userSpaceOnUse">
<stop stop-color="#3771C8"/>
<stop offset="0.128" stop-color="#3771C8"/>
<stop offset="1" stop-color="#6600FF" stop-opacity="0"/>
</radialGradient>
<clipPath id="clip0_215_10247">
<rect width="48" height="48" fill="white"/>
</clipPath>
</defs>
</svg>
