<svg width="40" height="40" viewBox="0 0 40 40" fill="none" xmlns="http://www.w3.org/2000/svg">
<rect x="0.5" y="0.5" width="39" height="39" rx="19.5" fill="#F7F9FC"/>
<rect x="0.5" y="0.5" width="39" height="39" rx="19.5" stroke="#0B2232"/>
<path d="M19 30V28C19 27.4477 19.4477 27 20 27C20.5523 27 21 27.4477 21 28V30C21 30.5523 20.5523 31 20 31C19.4477 31 19 30.5523 19 30ZM13.6328 24.9531C14.0233 24.5626 14.6564 24.5626 15.0469 24.9531C15.4374 25.3436 15.4374 25.9767 15.0469 26.3672L13.6372 27.7773C13.2467 28.1678 12.6132 28.1678 12.2227 27.7773C11.8322 27.3868 11.8322 26.7533 12.2227 26.3628L13.6328 24.9531ZM24.9531 24.9531C25.3436 24.5626 25.9767 24.5626 26.3672 24.9531L27.7773 26.3628C28.1678 26.7533 28.1678 27.3868 27.7773 27.7773C27.3868 28.1678 26.7533 28.1678 26.3628 27.7773L24.9531 26.3672C24.5626 25.9767 24.5626 25.3436 24.9531 24.9531ZM23 20C23 18.3431 21.6569 17 20 17C18.3431 17 17 18.3431 17 20C17 21.6569 18.3431 23 20 23C21.6569 23 23 21.6569 23 20ZM12 19C12.5523 19 13 19.4477 13 20C13 20.5523 12.5523 21 12 21H10C9.44772 21 9 20.5523 9 20C9 19.4477 9.44772 19 10 19H12ZM30 19C30.5523 19 31 19.4477 31 20C31 20.5523 30.5523 21 30 21H28C27.4477 21 27 20.5523 27 20C27 19.4477 27.4477 19 28 19H30ZM12.2227 12.2227C12.6132 11.8322 13.2467 11.8322 13.6372 12.2227L15.0469 13.6328C15.4374 14.0233 15.4374 14.6564 15.0469 15.0469C14.6564 15.4374 14.0233 15.4374 13.6328 15.0469L12.2227 13.6372C11.8322 13.2467 11.8322 12.6132 12.2227 12.2227ZM26.3628 12.2227C26.7533 11.8322 27.3868 11.8322 27.7773 12.2227C28.1678 12.6132 28.1678 13.2467 27.7773 13.6372L26.3672 15.0469C25.9767 15.4374 25.3436 15.4374 24.9531 15.0469C24.5626 14.6564 24.5626 14.0233 24.9531 13.6328L26.3628 12.2227ZM19 12V10C19 9.44772 19.4477 9 20 9C20.5523 9 21 9.44772 21 10V12C21 12.5523 20.5523 13 20 13C19.4477 13 19 12.5523 19 12ZM25 20C25 22.7614 22.7614 25 20 25C17.2386 25 15 22.7614 15 20C15 17.2386 17.2386 15 20 15C22.7614 15 25 17.2386 25 20Z" fill="#0B2232"/>
</svg>
