<svg width="48" height="48" viewBox="0 0 48 48" fill="none" xmlns="http://www.w3.org/2000/svg">
<path d="M0 24C0 37.2548 10.7452 48 24 48C37.2548 48 48 37.2548 48 24C48 10.7452 37.2548 0 24 0C10.7452 0 0 10.7452 0 24Z" fill="white"/>
<path d="M16.3 38H10.35V19.275H16.3V38ZM13.325 16.65C11.4 16.65 10 15.25 10 13.325C10 11.4 11.575 10 13.325 10C15.25 10 16.65 11.4 16.65 13.325C16.65 15.25 15.25 16.65 13.325 16.65ZM38 38H32.05V27.85C32.05 24.875 30.825 24 29.075 24C27.325 24 25.575 25.4 25.575 28.025V38H19.625V19.275H25.225V21.9C25.75 20.675 27.85 18.75 30.825 18.75C34.15 18.75 37.65 20.675 37.65 26.45V38H38Z" fill="#2867B2"/>
</svg>
