<svg width="159" height="56" viewBox="0 0 159 56" fill="none" xmlns="http://www.w3.org/2000/svg">
<ellipse cx="23.0811" cy="8.70215" rx="5.67568" ry="5.67517" fill="#2899E5"/>
<path d="M31.8529 47.7574C32.6567 49.0337 32.3044 50.7417 30.9356 51.3752C28.9076 52.3139 26.7177 52.8531 24.4801 52.9551C21.3423 53.0982 18.2242 52.3766 15.4479 50.8647C12.6715 49.3529 10.3376 47.1057 8.687 44.3552C7.03641 41.6047 6.12902 38.4505 6.05852 35.2183C5.98803 31.9862 6.75699 28.7933 8.28599 25.9693C9.815 23.1453 12.0486 20.7925 14.7563 19.154C17.4639 17.5155 20.5473 16.6506 23.6882 16.6486C25.925 16.6471 28.1331 17.0834 30.1976 17.9251C31.5971 18.4958 32.0266 20.19 31.2786 21.5033C30.5035 22.8642 28.7607 23.2829 27.2669 22.8123C26.1133 22.4489 24.9086 22.2621 23.6916 22.2629C21.5216 22.2643 19.3913 22.8618 17.5207 23.9939C15.6501 25.1259 14.1069 26.7513 13.0506 28.7024C11.9942 30.6534 11.4629 32.8593 11.5116 35.0923C11.5603 37.3253 12.1872 39.5045 13.3276 41.4048C14.4679 43.3051 16.0804 44.8576 17.9985 45.9021C19.9166 46.9466 22.0708 47.4451 24.2387 47.3462C25.4554 47.2908 26.6517 47.0482 27.7892 46.6312C29.2591 46.0924 31.0186 46.4326 31.8529 47.7574Z" fill="#2899E5"/>
<rect x="15.1353" y="31.7839" width="15.8919" height="6.05405" rx="3.02703" fill="#FF7E1C"/>
<path d="M53.2844 34.8108H42.9093V19.6681H53.2844V22.0065H45.5655V25.9113H53.1255V28.2497H45.5655V32.4724H53.2844V34.8108ZM61.3926 34.8108H58.8272L54.3548 23.8454H56.9202L60.1213 32.0638L63.3224 23.8454H65.8651L61.3926 34.8108ZM72.4472 35.0832C69.1326 35.0832 66.7035 32.7903 66.7035 29.3167C66.7035 26.1384 69.0191 23.573 72.2656 23.573C75.5575 23.573 77.6462 26.0703 77.6462 29.5211V30.1113H69.2008C69.3824 31.7459 70.6083 33.1308 72.6743 33.1308C73.764 33.1308 75.0126 32.6994 75.8072 31.9048L76.897 33.4713C75.7845 34.5157 74.1726 35.0832 72.4472 35.0832ZM75.3532 28.4086C75.2851 27.1146 74.3997 25.5254 72.2429 25.5254C70.2224 25.5254 69.2689 27.0919 69.1781 28.4086H75.3532ZM89.8067 34.8108H87.4229V27.9546C87.4229 26.2292 86.5375 25.6843 85.198 25.6843C83.9948 25.6843 82.9504 26.4108 82.3829 27.1373V34.8108H79.9991V23.8454H82.3829V25.3211C83.1094 24.4584 84.5396 23.573 86.265 23.573C88.6261 23.573 89.8067 24.8443 89.8067 27.0919V34.8108ZM96.217 35.0832C94.3554 35.0832 93.4018 34.0843 93.4018 32.2454V25.9113H91.5856V23.8454H93.4018V20.8486H95.7856V23.8454H98.0105V25.9113H95.7856V31.6551C95.7856 32.4043 96.1489 32.9719 96.8299 32.9719C97.284 32.9719 97.6927 32.7675 97.8743 32.5632L98.4418 34.3794C98.0105 34.7654 97.3067 35.0832 96.217 35.0832ZM107.508 35.0832C103.035 35.0832 99.5619 31.9048 99.5619 27.2508C99.5619 22.574 103.035 19.4184 107.508 19.4184C110.55 19.4184 112.457 20.9848 113.569 22.8011L111.322 23.9816C110.595 22.7102 109.12 21.7794 107.508 21.7794C104.511 21.7794 102.286 24.0497 102.286 27.2508C102.286 30.4065 104.511 32.7221 107.508 32.7221C109.12 32.7221 110.595 31.7686 111.322 30.52L113.592 31.6551C112.434 33.4713 110.55 35.0832 107.508 35.0832ZM120.599 35.0832C117.103 35.0832 114.969 32.4497 114.969 29.3167C114.969 26.1611 117.103 23.573 120.599 23.573C124.095 23.573 126.229 26.1611 126.229 29.3167C126.229 32.4497 124.095 35.0832 120.599 35.0832ZM120.599 32.9719C122.642 32.9719 123.755 31.2692 123.755 29.3167C123.755 27.387 122.642 25.6843 120.599 25.6843C118.579 25.6843 117.443 27.387 117.443 29.3167C117.443 31.2692 118.579 32.9719 120.599 32.9719ZM144.51 34.8108H142.126V27.6594C142.126 26.4789 141.604 25.6843 140.31 25.6843C139.243 25.6843 138.244 26.4108 137.767 27.1373V34.8108H135.384V27.6594C135.384 26.4789 134.884 25.6843 133.59 25.6843C132.523 25.6843 131.547 26.4335 131.047 27.1373V34.8108H128.664V23.8454H131.047V25.3211C131.524 24.6627 132.954 23.573 134.634 23.573C136.269 23.573 137.268 24.3903 137.631 25.5708C138.244 24.5946 139.697 23.573 141.354 23.573C143.352 23.573 144.51 24.6627 144.51 26.8875V34.8108Z" fill="#F6F6F6"/>
<path d="M46.0649 48.9621C45.3788 48.9621 44.7482 48.8713 44.173 48.6897C43.608 48.498 43.1539 48.1852 42.8109 47.7513C42.4779 47.3175 42.3114 46.7272 42.3114 45.9805C42.3114 45.9402 42.3114 45.8948 42.3114 45.8443C42.3114 45.7939 42.3165 45.7484 42.3266 45.7081H43.0984C43.0884 45.7787 43.0833 45.8493 43.0833 45.92C43.0833 45.9805 43.0833 46.0461 43.0833 46.1167C43.0833 46.6414 43.2145 47.0602 43.4768 47.373C43.7392 47.6757 44.0923 47.8976 44.5363 48.0389C44.9802 48.1701 45.4696 48.2357 46.0044 48.2357C46.5493 48.2357 47.0437 48.1701 47.4876 48.0389C47.9316 47.9077 48.2848 47.6807 48.5471 47.3578C48.8094 47.0248 48.9406 46.5758 48.9406 46.0108C48.9406 45.5466 48.8246 45.1784 48.5925 44.9059C48.3604 44.6234 48.0527 44.4014 47.6693 44.24C47.2959 44.0785 46.8822 43.9423 46.4282 43.8313C45.9741 43.7103 45.5201 43.5892 45.066 43.4681C44.622 43.347 44.2084 43.1906 43.8249 42.9989C43.4516 42.7971 43.1489 42.5297 42.9168 42.1967C42.6848 41.8537 42.5687 41.4148 42.5687 40.88C42.5687 40.2847 42.7251 39.7953 43.0379 39.4119C43.3608 39.0284 43.7846 38.7459 44.3093 38.5643C44.8339 38.3726 45.399 38.2767 46.0044 38.2767C46.6401 38.2767 47.2152 38.3675 47.7298 38.5492C48.2545 38.7308 48.6682 39.0234 48.9709 39.427C49.2837 39.8205 49.4401 40.3452 49.4401 41.0011V41.1978H48.6833V40.8648C48.6833 40.4411 48.5622 40.093 48.3201 39.8205C48.0779 39.5481 47.755 39.3463 47.3514 39.2151C46.9579 39.0739 46.5139 39.0032 46.0195 39.0032C45.5352 39.0032 45.0912 39.0638 44.6876 39.1848C44.284 39.3059 43.9611 39.5027 43.719 39.7751C43.4869 40.0475 43.3709 40.4108 43.3709 40.8648C43.3709 41.2785 43.4869 41.6115 43.719 41.8638C43.9511 42.116 44.2538 42.3178 44.6271 42.4692C45.0105 42.6205 45.4293 42.7517 45.8833 42.8627C46.3374 42.9737 46.7864 43.0998 47.2303 43.2411C47.6844 43.3722 48.0981 43.5438 48.4714 43.7557C48.8548 43.9675 49.1626 44.2501 49.3947 44.6032C49.6267 44.9564 49.7428 45.4104 49.7428 45.9654C49.7428 46.702 49.5712 47.2922 49.2282 47.7362C48.8952 48.1701 48.4512 48.4829 47.8963 48.6746C47.3413 48.8663 46.7309 48.9621 46.0649 48.9621ZM54.6173 48.8108V44.7848L50.8941 38.4281H51.8476L55.0411 43.9524H55.0865L58.3255 38.4281H59.1579L55.4346 44.7848V48.8108H54.6173ZM68.2884 48.8562C68.137 48.8562 67.9655 48.8108 67.7738 48.72C67.5922 48.6292 67.4358 48.4425 67.3046 48.16C67.1734 47.8775 67.1079 47.4537 67.1079 46.8886C67.1079 46.2227 67.0322 45.698 66.8808 45.3146C66.7295 44.9312 66.5378 44.6486 66.3057 44.467C66.0837 44.2753 65.8668 44.1542 65.6549 44.1038C65.443 44.0533 65.2765 44.0281 65.1554 44.0281H61.8106V48.8108H60.9933V38.4281H65.3673C65.8617 38.4281 66.3107 38.529 66.7143 38.7308C67.128 38.9326 67.461 39.2202 67.7133 39.5935C67.9655 39.9567 68.0916 40.4007 68.0916 40.9254C68.0916 41.3391 68.0109 41.7225 67.8495 42.0757C67.688 42.4288 67.4711 42.7366 67.1987 42.9989C66.9262 43.2612 66.6235 43.463 66.2906 43.6043V43.68C66.2906 43.68 66.3713 43.7103 66.5327 43.7708C66.6942 43.8212 66.8808 43.9423 67.0927 44.134C67.3046 44.3157 67.4913 44.5982 67.6527 44.9816C67.8142 45.3549 67.8949 45.8594 67.8949 46.4951C67.8949 46.9593 67.9151 47.3225 67.9554 47.5848C68.0059 47.8371 68.0664 48.0238 68.137 48.1448C68.2077 48.2558 68.2884 48.3315 68.3792 48.3719C68.4801 48.4122 68.576 48.4576 68.6668 48.5081V48.7957C68.6668 48.7957 68.6315 48.8057 68.5608 48.8259C68.4902 48.8461 68.3994 48.8562 68.2884 48.8562ZM61.8106 43.3016H65.2614C65.6347 43.3016 65.9727 43.1906 66.2754 42.9686C66.5882 42.7466 66.8354 42.4591 67.017 42.1059C67.1987 41.7528 67.2895 41.3794 67.2895 40.9859C67.2895 40.3906 67.0978 39.9366 66.7143 39.6238C66.341 39.311 65.8567 39.1546 65.2614 39.1546H61.8106V43.3016ZM70.6634 48.8108V48.0843H71.8591V39.1546H70.6634V38.4281H73.8721V39.1546H72.6764V48.0843H73.8721V48.8108H70.6634ZM75.1653 48.8108L79.4637 38.4281H80.2204L84.5188 48.8108H83.6258L82.5512 46.2378H77.0723L76.0129 48.8108H75.1653ZM77.375 45.4962H82.2485L79.8421 39.5481H79.7815L77.375 45.4962Z" fill="#B0B0B0"/>
</svg>
