<svg width="40" height="40" viewBox="0 0 40 40" fill="none" xmlns="http://www.w3.org/2000/svg">
<path d="M9.99967 13.7499C10.69 13.7499 11.2497 14.3096 11.2497 14.9999V34.9999C11.2497 35.6903 10.69 36.2499 9.99967 36.2499H3.33301C2.64265 36.2499 2.08301 35.6903 2.08301 34.9999V14.9999C2.08301 14.3096 2.64265 13.7499 3.33301 13.7499H9.99967ZM35.4163 23.3333C35.4163 21.0126 34.4946 18.7869 32.8537 17.1459C31.2127 15.505 28.987 14.5833 26.6663 14.5833C24.3457 14.5833 22.1199 15.505 20.479 17.1459C18.8381 18.7869 17.9163 21.0126 17.9163 23.3333V33.7499H22.083V23.3333C22.083 22.1177 22.5662 20.9522 23.4258 20.0927C24.2853 19.2332 25.4508 18.7499 26.6663 18.7499C27.8819 18.7499 29.0474 19.2332 29.9069 20.0927C30.7664 20.9522 31.2497 22.1177 31.2497 23.3333V33.7499H35.4163V23.3333ZM4.58301 33.7499H8.74967V16.2499H4.58301V33.7499ZM8.74967 6.66659C8.74967 5.51599 7.81693 4.58325 6.66634 4.58325C5.51575 4.58325 4.58301 5.51599 4.58301 6.66659C4.58301 7.81718 5.51575 8.74992 6.66634 8.74992C7.81693 8.74992 8.74967 7.81718 8.74967 6.66659ZM37.9163 34.9999C37.9163 35.6903 37.3567 36.2499 36.6663 36.2499H29.9997C29.3093 36.2499 28.7497 35.6903 28.7497 34.9999V23.3333C28.7497 22.7807 28.53 22.251 28.1393 21.8603C27.7486 21.4696 27.2189 21.2499 26.6663 21.2499C26.1138 21.2499 25.5841 21.4696 25.1934 21.8603C24.8027 22.251 24.583 22.7807 24.583 23.3333V34.9999C24.583 35.6903 24.0234 36.2499 23.333 36.2499H16.6663C15.976 36.2499 15.4163 35.6903 15.4163 34.9999V23.3333C15.4163 20.3496 16.6016 17.4881 18.7114 15.3783C20.8212 13.2686 23.6827 12.0833 26.6663 12.0833C29.65 12.0833 32.5115 13.2686 34.6213 15.3783C36.731 17.4881 37.9163 20.3496 37.9163 23.3333V34.9999ZM11.2497 6.66659C11.2497 9.19789 9.19765 11.2499 6.66634 11.2499C4.13504 11.2499 2.08301 9.19789 2.08301 6.66659C2.08301 4.13528 4.13504 2.08325 6.66634 2.08325C9.19765 2.08325 11.2497 4.13528 11.2497 6.66659Z" fill="#0B2232"/>
</svg>
