<svg width="40" height="40" viewBox="0 0 40 40" fill="none" xmlns="http://www.w3.org/2000/svg">
<path d="M22.0837 11.6666C22.0837 10.893 22.3912 10.1514 22.9382 9.60441C23.4851 9.05743 24.2268 8.74992 25.0003 8.74992H28.7503V4.58325H25.0003C23.1217 4.58325 21.3198 5.32925 19.9914 6.65763C18.663 7.98602 17.917 9.78797 17.917 11.6666V16.6666C17.917 17.3569 17.3573 17.9166 16.667 17.9166H12.917V22.0833H16.667C17.3573 22.0833 17.917 22.6429 17.917 23.3333V35.4166H22.0837V23.3333C22.0837 22.6429 22.6433 22.0833 23.3337 22.0833H27.3579L28.3996 17.9166H23.3337C22.6433 17.9166 22.0837 17.3569 22.0837 16.6666V11.6666ZM24.5837 15.4166H30.0003C30.3852 15.4166 30.749 15.5941 30.9858 15.8975C31.2226 16.2009 31.3062 16.5968 31.2129 16.9701L29.5462 23.6368C29.407 24.1931 28.9071 24.5833 28.3337 24.5833H24.5837V36.6666C24.5837 37.3569 24.024 37.9166 23.3337 37.9166H16.667C15.9766 37.9166 15.417 37.3569 15.417 36.6666V24.5833H11.667C10.9766 24.5833 10.417 24.0236 10.417 23.3333V16.6666C10.417 15.9762 10.9766 15.4166 11.667 15.4166H15.417V11.6666C15.417 9.12493 16.4266 6.68728 18.2238 4.89006C20.021 3.09283 22.4587 2.08325 25.0003 2.08325H30.0003C30.6907 2.08325 31.2503 2.6429 31.2503 3.33325V9.99992C31.2503 10.6903 30.6907 11.2499 30.0003 11.2499H25.0003C24.8898 11.2499 24.7839 11.2938 24.7057 11.372C24.6276 11.4501 24.5837 11.5561 24.5837 11.6666V15.4166Z" fill="#0B2232"/>
</svg>
