<svg width="40" height="40" viewBox="0 0 40 40" fill="none" xmlns="http://www.w3.org/2000/svg">
<path d="M35.4163 11.6666C35.4163 7.75457 32.245 4.58325 28.333 4.58325H11.6663C7.75432 4.58325 4.58301 7.75457 4.58301 11.6666V28.3333C4.58301 32.2453 7.75432 35.4166 11.6663 35.4166H28.333C32.245 35.4166 35.4163 32.2453 35.4163 28.3333V11.6666ZM16.4255 12.9011C17.9035 12.1342 19.5862 11.8528 21.2334 12.0971C22.9134 12.3463 24.4685 13.1292 25.6694 14.3302C26.8704 15.5311 27.6533 17.0862 27.9025 18.7662C28.1468 20.4133 27.8654 22.0961 27.0985 23.5741C26.3315 25.0521 25.1182 26.2508 23.6309 26.9994C22.1435 27.748 20.4579 28.0086 18.814 27.7441C17.17 27.4795 15.6514 26.7031 14.474 25.5256C13.2965 24.3482 12.5201 22.8296 12.2555 21.1856C11.991 19.5417 12.2516 17.8561 13.0002 16.3687C13.7488 14.8814 14.9475 13.6681 16.4255 12.9011ZM20.8664 14.5694C19.7394 14.4023 18.5883 14.5948 17.577 15.1195C16.5657 15.6443 15.7455 16.4749 15.2332 17.4926C14.7211 18.5102 14.5428 19.6637 14.7238 20.7885C14.9048 21.9133 15.4359 22.9525 16.2415 23.7581C17.0471 24.5637 18.0863 25.0948 19.2111 25.2758C20.3359 25.4568 21.4893 25.2785 22.507 24.7664C23.5247 24.2541 24.3553 23.4339 24.88 22.4226C25.4047 21.4113 25.5973 20.2602 25.4302 19.1332C25.2597 17.9836 24.7236 16.9195 23.9019 16.0977C23.0801 15.276 22.016 14.7399 20.8664 14.5694ZM29.1826 9.58325C29.873 9.58325 30.4326 10.1429 30.4326 10.8333C30.4326 11.5236 29.873 12.0833 29.1826 12.0833H29.1663C28.476 12.0833 27.9163 11.5236 27.9163 10.8333C27.9163 10.1429 28.476 9.58325 29.1663 9.58325H29.1826ZM37.9163 28.3333C37.9163 33.626 33.6257 37.9166 28.333 37.9166H11.6663C6.37361 37.9166 2.08301 33.626 2.08301 28.3333V11.6666C2.08301 6.37386 6.37361 2.08325 11.6663 2.08325H28.333C33.6257 2.08325 37.9163 6.37386 37.9163 11.6666V28.3333Z" fill="#0B2232"/>
</svg>
