<svg width="28" height="20" viewBox="0 0 28 20" fill="none" xmlns="http://www.w3.org/2000/svg">
<g clip-path="url(#clip0_224_9583)">
<path d="M27.5172 20.4394H0.48278C0.216179 20.4394 0 20.1981 0 19.9006V0.504058C0 0.206512 0.216179 -0.0347595 0.48278 -0.0347595H27.5172C27.7838 -0.0347595 28 0.206512 28 0.504058V19.9006C27.9999 20.1982 27.7838 20.4394 27.5172 20.4394Z" fill="#F5F5F5"/>
<path d="M27.9999 1.54025H0V0.504057C0 0.206512 0.216179 -0.0347595 0.48278 -0.0347595H27.5172C27.7838 -0.0347595 28 0.206512 28 0.504057L27.9999 1.54025Z" fill="#FF4B55"/>
<path d="M27.9999 6.26492H0V7.83987H27.9999V6.26492Z" fill="#FF4B55"/>
<path d="M27.9999 3.11493H0V4.68988H27.9999V3.11493Z" fill="#FF4B55"/>
<path d="M27.9999 10.9898H0.48278C0.216179 10.9898 0 10.7485 0 10.451V9.41476H27.9999V10.9898Z" fill="#FF4B55"/>
<path d="M27.9999 15.715H0V17.2899H27.9999V15.715Z" fill="#FF4B55"/>
<path d="M27.5172 20.4394H0.48278C0.216179 20.4394 0 20.1981 0 19.9005V18.8644H27.9999V19.9006C27.9999 20.1982 27.7838 20.4394 27.5172 20.4394Z" fill="#FF4B55"/>
<path d="M27.9999 12.565H0V14.1399H27.9999V12.565Z" fill="#FF4B55"/>
<path d="M12.5517 -0.034668H0.48278C0.216179 -0.034668 0 0.206542 0 0.504088V10.451C0 10.7485 0.216179 10.9898 0.48278 10.9898H12.5517C12.8183 10.9898 13.0345 10.7485 13.0345 10.451V0.504088C13.0345 0.206542 12.8183 -0.034668 12.5517 -0.034668Z" fill="#41479B"/>
<path d="M1.35624 1.202L1.46309 1.55967L1.8009 1.56254C1.84465 1.56296 1.86275 1.62522 1.82759 1.65421L1.55584 1.87821L1.65778 2.23765C1.67102 2.28415 1.62349 2.32273 1.58789 2.29429L1.31309 2.07511L1.03828 2.29435C1.00268 2.32273 0.955267 2.28422 0.968392 2.23771L1.07033 1.87827L0.798588 1.65427C0.763424 1.62522 0.781525 1.56303 0.825275 1.5626L1.16308 1.55973L1.26994 1.20206C1.28372 1.15568 1.34234 1.15568 1.35624 1.202Z" fill="#F5F5F5"/>
<path d="M1.35584 3.07293L1.4627 3.4306L1.8005 3.43346C1.84425 3.43389 1.86235 3.49615 1.82719 3.52514L1.55545 3.74914L1.65738 4.10857C1.67062 4.15508 1.6231 4.19366 1.58749 4.16521L1.31269 3.94604L1.03789 4.16527C1.00228 4.19366 0.954871 4.15514 0.967996 4.10863L1.06993 3.7492L0.798191 3.5252C0.763027 3.49615 0.781129 3.43395 0.824879 3.43353L1.16268 3.43066L1.26954 3.07299C1.28332 3.02666 1.34195 3.02667 1.35584 3.07293Z" fill="#F5F5F5"/>
<path d="M1.35584 4.9439L1.4627 5.30157L1.8005 5.30444C1.84425 5.30486 1.86235 5.36712 1.82719 5.39611L1.55545 5.62011L1.65738 5.97954C1.67062 6.02605 1.6231 6.06463 1.58749 6.03618L1.31269 5.81701L1.03789 6.03624C1.00228 6.06463 0.954871 6.02611 0.967996 5.9796L1.06993 5.62017L0.798191 5.39617C0.763027 5.36712 0.781129 5.30492 0.824879 5.3045L1.16268 5.30163L1.26954 4.94396C1.28332 4.89764 1.34195 4.89764 1.35584 4.9439Z" fill="#F5F5F5"/>
<path d="M1.35584 6.81495L1.4627 7.17261L1.8005 7.17548C1.84425 7.17591 1.86235 7.23817 1.82719 7.26716L1.55545 7.49116L1.65738 7.85059C1.67062 7.8971 1.6231 7.93567 1.58749 7.90723L1.31269 7.68806L1.03789 7.90729C1.00228 7.93567 0.954871 7.89716 0.967996 7.85065L1.06993 7.49122L0.798191 7.26722C0.763027 7.23817 0.781129 7.17597 0.824879 7.17554L1.16268 7.17268L1.26954 6.81501C1.28332 6.76862 1.34195 6.76862 1.35584 6.81495Z" fill="#F5F5F5"/>
<path d="M1.35584 8.68587L1.4627 9.04354L1.8005 9.04641C1.84425 9.04684 1.86235 9.10909 1.82719 9.13808L1.55545 9.36208L1.65738 9.72152C1.67062 9.76803 1.6231 9.8066 1.58749 9.77816L1.31269 9.55898L1.03789 9.77822C1.00228 9.8066 0.954871 9.76809 0.967996 9.72158L1.06993 9.36214L0.798191 9.13814C0.763027 9.10909 0.781129 9.0469 0.824879 9.04647L1.16268 9.0436L1.26954 8.68594C1.28332 8.63949 1.34195 8.63949 1.35584 8.68587Z" fill="#F5F5F5"/>
<path d="M2.65696 2.11926L2.76381 2.47693L3.10162 2.4798C3.14537 2.48022 3.16347 2.54248 3.12831 2.57147L2.85656 2.79547L2.9585 3.15491C2.97174 3.20141 2.92421 3.23999 2.88861 3.21155L2.61381 2.99231L2.339 3.21155C2.3034 3.23993 2.25599 3.20141 2.26911 3.15491L2.37105 2.79547L2.09931 2.57147C2.06414 2.54242 2.08225 2.48022 2.126 2.4798L2.4638 2.47693L2.57066 2.11926C2.58439 2.073 2.64312 2.073 2.65696 2.11926Z" fill="#F5F5F5"/>
<path d="M2.65696 3.99025L2.76381 4.34791L3.10162 4.35078C3.14537 4.35121 3.16347 4.41347 3.12831 4.44246L2.85656 4.66646L2.9585 5.02589C2.97174 5.0724 2.92421 5.11097 2.88861 5.08253L2.61381 4.86329L2.339 5.08253C2.3034 5.11091 2.25599 5.07246 2.26911 5.02589L2.37105 4.66646L2.09931 4.44246C2.06414 4.4134 2.08225 4.35121 2.126 4.35078L2.4638 4.34791L2.57066 3.99025C2.58439 3.94392 2.64312 3.94392 2.65696 3.99025Z" fill="#F5F5F5"/>
<path d="M2.65696 5.86122L2.76381 6.21889L3.10162 6.22176C3.14537 6.22218 3.16347 6.28444 3.12831 6.31343L2.85656 6.53743L2.9585 6.89686C2.97174 6.94337 2.92421 6.98195 2.88861 6.9535L2.61381 6.73427L2.339 6.9535C2.3034 6.98189 2.25599 6.94337 2.26911 6.89686L2.37105 6.53743L2.09931 6.31343C2.06414 6.28438 2.08225 6.22218 2.126 6.22176L2.4638 6.21889L2.57066 5.86122C2.58439 5.8149 2.64312 5.8149 2.65696 5.86122Z" fill="#F5F5F5"/>
<path d="M2.65696 7.73221L2.76381 8.08987L3.10162 8.09274C3.14537 8.09317 3.16347 8.15542 3.12831 8.18442L2.85656 8.40842L2.9585 8.76785C2.97174 8.81436 2.92421 8.85293 2.88861 8.82449L2.61381 8.60525L2.339 8.82449C2.3034 8.85287 2.25599 8.81436 2.26911 8.76785L2.37105 8.40842L2.09931 8.18442C2.06414 8.15536 2.08225 8.09317 2.126 8.09274L2.4638 8.08987L2.57066 7.73221C2.58439 7.68594 2.64312 7.68594 2.65696 7.73221Z" fill="#F5F5F5"/>
<path d="M3.95819 1.20198L4.06505 1.55965L4.40286 1.56251C4.44661 1.56294 4.46471 1.6252 4.42955 1.65419L4.1578 1.87819L4.25974 2.23762C4.27298 2.28413 4.22545 2.3227 4.18985 2.29426L3.91505 2.07502L3.64024 2.29426C3.60464 2.32264 3.55723 2.28413 3.57035 2.23762L3.67229 1.87819L3.40055 1.65419C3.36538 1.62514 3.38348 1.56294 3.42723 1.56251L3.76504 1.55965L3.8719 1.20198C3.88568 1.15565 3.94436 1.15565 3.95819 1.20198Z" fill="#F5F5F5"/>
<path d="M3.95819 3.07294L4.06505 3.4306L4.40286 3.43347C4.44661 3.4339 4.46471 3.49615 4.42955 3.52515L4.1578 3.74914L4.25974 4.10858C4.27298 4.15509 4.22545 4.19366 4.18985 4.16522L3.91505 3.94598L3.64024 4.16522C3.60464 4.1936 3.55723 4.15509 3.57035 4.10858L3.67229 3.74914L3.40055 3.52515C3.36538 3.49609 3.38348 3.4339 3.42723 3.43347L3.76504 3.4306L3.8719 3.07294C3.88568 3.02667 3.94436 3.02667 3.95819 3.07294Z" fill="#F5F5F5"/>
<path d="M3.95819 4.94391L4.06505 5.30157L4.40286 5.30444C4.44661 5.30487 4.46471 5.36713 4.42955 5.39612L4.1578 5.62012L4.25974 5.97955C4.27298 6.02606 4.22545 6.06464 4.18985 6.03619L3.91505 5.81696L3.64024 6.03619C3.60464 6.06458 3.55723 6.02606 3.57035 5.97955L3.67229 5.62012L3.40055 5.39612C3.36538 5.36707 3.38348 5.30487 3.42723 5.30444L3.76504 5.30157L3.8719 4.94391C3.88568 4.89764 3.94436 4.89764 3.95819 4.94391Z" fill="#F5F5F5"/>
<path d="M3.95819 6.8149L4.06505 7.17256L4.40286 7.17543C4.44661 7.17586 4.46471 7.23811 4.42955 7.2671L4.1578 7.4911L4.25974 7.85054C4.27298 7.89705 4.22545 7.93562 4.18985 7.90718L3.91505 7.68794L3.64024 7.90718C3.60464 7.93556 3.55723 7.89705 3.57035 7.85054L3.67229 7.4911L3.40055 7.2671C3.36538 7.23805 3.38348 7.17586 3.42723 7.17543L3.76504 7.17256L3.8719 6.8149C3.88568 6.76857 3.94436 6.76857 3.95819 6.8149Z" fill="#F5F5F5"/>
<path d="M3.95819 8.68588L4.06505 9.04355L4.40286 9.04642C4.44661 9.04684 4.46471 9.1091 4.42955 9.13809L4.1578 9.36209L4.25974 9.72152C4.27298 9.76803 4.22545 9.80661 4.18985 9.77816L3.91505 9.55893L3.64024 9.77816C3.60464 9.80655 3.55723 9.76803 3.57035 9.72152L3.67229 9.36209L3.40055 9.13809C3.36538 9.10904 3.38348 9.04684 3.42723 9.04642L3.76504 9.04355L3.8719 8.68588C3.88568 8.6395 3.94436 8.6395 3.95819 8.68588Z" fill="#F5F5F5"/>
<path d="M5.25946 2.11926L5.36632 2.47693L5.70413 2.4798C5.74788 2.48022 5.76598 2.54248 5.73081 2.57147L5.45907 2.79547L5.56101 3.15491C5.57424 3.20141 5.52672 3.23999 5.49112 3.21155L5.21632 2.99231L4.94151 3.21155C4.90591 3.23993 4.8585 3.20141 4.87162 3.15491L4.97356 2.79547L4.70182 2.57147C4.66665 2.54242 4.68475 2.48022 4.7285 2.4798L5.06631 2.47693L5.17317 2.11926C5.18689 2.073 5.24563 2.073 5.25946 2.11926Z" fill="#F5F5F5"/>
<path d="M5.25946 3.99025L5.36632 4.34791L5.70413 4.35078C5.74788 4.35121 5.76598 4.41347 5.73081 4.44246L5.45907 4.66646L5.56101 5.02589C5.57424 5.0724 5.52672 5.11097 5.49112 5.08253L5.21632 4.86329L4.94151 5.08253C4.90591 5.11091 4.8585 5.07246 4.87162 5.02589L4.97356 4.66646L4.70182 4.44246C4.66665 4.4134 4.68475 4.35121 4.7285 4.35078L5.06631 4.34791L5.17317 3.99025C5.18689 3.94392 5.24563 3.94392 5.25946 3.99025Z" fill="#F5F5F5"/>
<path d="M5.25946 5.86122L5.36632 6.21889L5.70413 6.22176C5.74788 6.22218 5.76598 6.28444 5.73081 6.31343L5.45907 6.53743L5.56101 6.89686C5.57424 6.94337 5.52672 6.98195 5.49112 6.9535L5.21632 6.73427L4.94151 6.9535C4.90591 6.98189 4.8585 6.94337 4.87162 6.89686L4.97356 6.53743L4.70182 6.31343C4.66665 6.28438 4.68475 6.22218 4.7285 6.22176L5.06631 6.21889L5.17317 5.86122C5.18689 5.8149 5.24563 5.8149 5.25946 5.86122Z" fill="#F5F5F5"/>
<path d="M5.25946 7.73221L5.36632 8.08987L5.70413 8.09274C5.74788 8.09317 5.76598 8.15542 5.73081 8.18442L5.45907 8.40842L5.56101 8.76785C5.57424 8.81436 5.52672 8.85293 5.49112 8.82449L5.21632 8.60525L4.94151 8.82449C4.90591 8.85287 4.8585 8.81436 4.87162 8.76785L4.97356 8.40842L4.70182 8.18442C4.66665 8.15536 4.68475 8.09317 4.7285 8.09274L5.06631 8.08987L5.17317 7.73221C5.18689 7.68594 5.24563 7.68594 5.25946 7.73221Z" fill="#F5F5F5"/>
<path d="M6.5606 1.20198L6.66746 1.55965L7.00527 1.56251C7.04902 1.56294 7.06712 1.6252 7.03195 1.65419L6.76021 1.87819L6.86215 2.23762C6.87539 2.28413 6.82786 2.3227 6.79226 2.29426L6.5174 2.07502L6.2426 2.29426C6.207 2.32264 6.15958 2.28413 6.17271 2.23762L6.27464 1.87819L6.0029 1.65419C5.96774 1.62514 5.98584 1.56294 6.02959 1.56251L6.36739 1.55965L6.47425 1.20198C6.48809 1.15565 6.54677 1.15565 6.5606 1.20198Z" fill="#F5F5F5"/>
<path d="M6.5606 3.07294L6.66746 3.4306L7.00527 3.43347C7.04902 3.4339 7.06712 3.49615 7.03195 3.52515L6.76021 3.74914L6.86215 4.10858C6.87539 4.15509 6.82786 4.19366 6.79226 4.16522L6.5174 3.94598L6.2426 4.16522C6.207 4.1936 6.15958 4.15509 6.17271 4.10858L6.27464 3.74914L6.0029 3.52515C5.96774 3.49609 5.98584 3.4339 6.02959 3.43347L6.36739 3.4306L6.47425 3.07294C6.48809 3.02667 6.54677 3.02667 6.5606 3.07294Z" fill="#F5F5F5"/>
<path d="M6.5606 4.94391L6.66746 5.30157L7.00527 5.30444C7.04902 5.30487 7.06712 5.36713 7.03195 5.39612L6.76021 5.62012L6.86215 5.97955C6.87539 6.02606 6.82786 6.06464 6.79226 6.03619L6.5174 5.81696L6.2426 6.03619C6.207 6.06458 6.15958 6.02606 6.17271 5.97955L6.27464 5.62012L6.0029 5.39612C5.96774 5.36707 5.98584 5.30487 6.02959 5.30444L6.36739 5.30157L6.47425 4.94391C6.48809 4.89764 6.54677 4.89764 6.5606 4.94391Z" fill="#F5F5F5"/>
<path d="M6.5606 6.8149L6.66746 7.17256L7.00527 7.17543C7.04902 7.17586 7.06712 7.23811 7.03195 7.2671L6.76021 7.4911L6.86215 7.85054C6.87539 7.89705 6.82786 7.93562 6.79226 7.90718L6.5174 7.68794L6.2426 7.90718C6.207 7.93556 6.15958 7.89705 6.17271 7.85054L6.27464 7.4911L6.0029 7.2671C5.96774 7.23805 5.98584 7.17586 6.02959 7.17543L6.36739 7.17256L6.47425 6.8149C6.48809 6.76857 6.54677 6.76857 6.5606 6.8149Z" fill="#F5F5F5"/>
<path d="M6.5606 8.68588L6.66746 9.04355L7.00527 9.04642C7.04902 9.04684 7.06712 9.1091 7.03195 9.13809L6.76021 9.36209L6.86215 9.72152C6.87539 9.76803 6.82786 9.80661 6.79226 9.77816L6.5174 9.55893L6.2426 9.77816C6.207 9.80655 6.15958 9.76803 6.17271 9.72152L6.27464 9.36209L6.0029 9.13809C5.96774 9.10904 5.98584 9.04684 6.02959 9.04642L6.36739 9.04355L6.47425 8.68588C6.48809 8.6395 6.54677 8.6395 6.5606 8.68588Z" fill="#F5F5F5"/>
<path d="M7.86182 2.11926L7.96868 2.47693L8.30648 2.4798C8.35023 2.48022 8.36834 2.54248 8.33317 2.57147L8.06143 2.79547L8.16337 3.15491C8.1766 3.20141 8.12908 3.23999 8.09348 3.21155L7.81867 2.99231L7.54387 3.21155C7.50827 3.23993 7.46085 3.20141 7.47398 3.15491L7.57591 2.79547L7.30417 2.57147C7.26901 2.54242 7.28711 2.48022 7.33086 2.4798L7.66866 2.47693L7.77552 2.11926C7.78936 2.073 7.84798 2.073 7.86182 2.11926Z" fill="#F5F5F5"/>
<path d="M7.86182 3.99025L7.96868 4.34791L8.30648 4.35078C8.35023 4.35121 8.36834 4.41347 8.33317 4.44246L8.06143 4.66646L8.16337 5.02589C8.1766 5.0724 8.12908 5.11097 8.09348 5.08253L7.81867 4.86329L7.54387 5.08253C7.50827 5.11091 7.46085 5.07246 7.47398 5.02589L7.57591 4.66646L7.30417 4.44246C7.26901 4.4134 7.28711 4.35121 7.33086 4.35078L7.66866 4.34791L7.77552 3.99025C7.78936 3.94392 7.84798 3.94392 7.86182 3.99025Z" fill="#F5F5F5"/>
<path d="M7.86182 5.86122L7.96868 6.21889L8.30648 6.22176C8.35023 6.22218 8.36834 6.28444 8.33317 6.31343L8.06143 6.53743L8.16337 6.89686C8.1766 6.94337 8.12908 6.98195 8.09348 6.9535L7.81867 6.73427L7.54387 6.9535C7.50827 6.98189 7.46085 6.94337 7.47398 6.89686L7.57591 6.53743L7.30417 6.31343C7.26901 6.28438 7.28711 6.22218 7.33086 6.22176L7.66866 6.21889L7.77552 5.86122C7.78936 5.8149 7.84798 5.8149 7.86182 5.86122Z" fill="#F5F5F5"/>
<path d="M7.86182 7.73221L7.96868 8.08987L8.30648 8.09274C8.35023 8.09317 8.36834 8.15542 8.33317 8.18442L8.06143 8.40842L8.16337 8.76785C8.1766 8.81436 8.12908 8.85293 8.09348 8.82449L7.81867 8.60525L7.54387 8.82449C7.50827 8.85287 7.46085 8.81436 7.47398 8.76785L7.57591 8.40842L7.30417 8.18442C7.26901 8.15536 7.28711 8.09317 7.33086 8.09274L7.66866 8.08987L7.77552 7.73221C7.78936 7.68594 7.84798 7.68594 7.86182 7.73221Z" fill="#F5F5F5"/>
<path d="M9.16306 1.20198L9.26992 1.55965L9.60772 1.56251C9.65147 1.56294 9.66958 1.6252 9.63441 1.65419L9.36267 1.87819L9.46461 2.23762C9.47784 2.28413 9.43032 2.3227 9.39472 2.29426L9.11991 2.07502L8.84511 2.29426C8.80951 2.32264 8.76209 2.28413 8.77522 2.23762L8.87715 1.87819L8.60541 1.65419C8.57025 1.62514 8.58835 1.56294 8.6321 1.56251L8.9699 1.55965L9.07676 1.20198C9.09049 1.15565 9.14922 1.15565 9.16306 1.20198Z" fill="#F5F5F5"/>
<path d="M9.16306 3.07294L9.26992 3.4306L9.60772 3.43347C9.65147 3.4339 9.66958 3.49615 9.63441 3.52515L9.36267 3.74914L9.46461 4.10858C9.47784 4.15509 9.43032 4.19366 9.39472 4.16522L9.11991 3.94598L8.84511 4.16522C8.80951 4.1936 8.76209 4.15509 8.77522 4.10858L8.87715 3.74914L8.60541 3.52515C8.57025 3.49609 8.58835 3.4339 8.6321 3.43347L8.9699 3.4306L9.07676 3.07294C9.09049 3.02667 9.14922 3.02667 9.16306 3.07294Z" fill="#F5F5F5"/>
<path d="M9.16306 4.94391L9.26992 5.30157L9.60772 5.30444C9.65147 5.30487 9.66958 5.36713 9.63441 5.39612L9.36267 5.62012L9.46461 5.97955C9.47784 6.02606 9.43032 6.06464 9.39472 6.03619L9.11991 5.81696L8.84511 6.03619C8.80951 6.06458 8.76209 6.02606 8.77522 5.97955L8.87715 5.62012L8.60541 5.39612C8.57025 5.36707 8.58835 5.30487 8.6321 5.30444L8.9699 5.30157L9.07676 4.94391C9.09049 4.89764 9.14922 4.89764 9.16306 4.94391Z" fill="#F5F5F5"/>
<path d="M9.16306 6.8149L9.26992 7.17256L9.60772 7.17543C9.65147 7.17586 9.66958 7.23811 9.63441 7.2671L9.36267 7.4911L9.46461 7.85054C9.47784 7.89705 9.43032 7.93562 9.39472 7.90718L9.11991 7.68794L8.84511 7.90718C8.80951 7.93556 8.76209 7.89705 8.77522 7.85054L8.87715 7.4911L8.60541 7.2671C8.57025 7.23805 8.58835 7.17586 8.6321 7.17543L8.9699 7.17256L9.07676 6.8149C9.09049 6.76857 9.14922 6.76857 9.16306 6.8149Z" fill="#F5F5F5"/>
<path d="M9.16306 8.68588L9.26992 9.04355L9.60772 9.04642C9.65147 9.04684 9.66958 9.1091 9.63441 9.13809L9.36267 9.36209L9.46461 9.72152C9.47784 9.76803 9.43032 9.80661 9.39472 9.77816L9.11991 9.55893L8.84511 9.77816C8.80951 9.80655 8.76209 9.76803 8.77522 9.72152L8.87715 9.36209L8.60541 9.13809C8.57025 9.10904 8.58835 9.04684 8.6321 9.04642L8.9699 9.04355L9.07676 8.68588C9.09049 8.6395 9.14922 8.6395 9.16306 8.68588Z" fill="#F5F5F5"/>
<path d="M10.4642 2.11926L10.571 2.47693L10.9088 2.4798C10.9526 2.48022 10.9707 2.54248 10.9355 2.57147L10.6638 2.79547L10.7657 3.15491C10.779 3.20141 10.7314 3.23999 10.6958 3.21155L10.421 2.99231L10.1462 3.21155C10.1106 3.23993 10.0632 3.20141 10.0763 3.15491L10.1783 2.79547L9.90653 2.57147C9.87136 2.54242 9.88947 2.48022 9.93322 2.4798L10.271 2.47693L10.3779 2.11926C10.3917 2.073 10.4504 2.073 10.4642 2.11926Z" fill="#F5F5F5"/>
<path d="M10.4642 3.99025L10.571 4.34791L10.9088 4.35078C10.9526 4.35121 10.9707 4.41347 10.9355 4.44246L10.6638 4.66646L10.7657 5.02589C10.779 5.0724 10.7314 5.11097 10.6958 5.08253L10.421 4.86329L10.1462 5.08253C10.1106 5.11091 10.0632 5.07246 10.0763 5.02589L10.1783 4.66646L9.90653 4.44246C9.87136 4.4134 9.88947 4.35121 9.93322 4.35078L10.271 4.34791L10.3779 3.99025C10.3917 3.94392 10.4504 3.94392 10.4642 3.99025Z" fill="#F5F5F5"/>
<path d="M10.4642 5.86122L10.571 6.21889L10.9088 6.22176C10.9526 6.22218 10.9707 6.28444 10.9355 6.31343L10.6638 6.53743L10.7657 6.89686C10.779 6.94337 10.7314 6.98195 10.6958 6.9535L10.421 6.73427L10.1462 6.9535C10.1106 6.98189 10.0632 6.94337 10.0763 6.89686L10.1783 6.53743L9.90653 6.31343C9.87136 6.28438 9.88947 6.22218 9.93322 6.22176L10.271 6.21889L10.3779 5.86122C10.3917 5.8149 10.4504 5.8149 10.4642 5.86122Z" fill="#F5F5F5"/>
<path d="M10.4642 7.73221L10.571 8.08987L10.9088 8.09274C10.9526 8.09317 10.9707 8.15542 10.9355 8.18442L10.6638 8.40842L10.7657 8.76785C10.779 8.81436 10.7314 8.85293 10.6958 8.82449L10.421 8.60525L10.1462 8.82449C10.1106 8.85287 10.0632 8.81436 10.0763 8.76785L10.1783 8.40842L9.90653 8.18442C9.87136 8.15536 9.88947 8.09317 9.93322 8.09274L10.271 8.08987L10.3779 7.73221C10.3917 7.68594 10.4504 7.68594 10.4642 7.73221Z" fill="#F5F5F5"/>
<path d="M11.7654 1.20198L11.8723 1.55965L12.2101 1.56251C12.2538 1.56294 12.2719 1.6252 12.2368 1.65419L11.965 1.87819L12.067 2.23762C12.0802 2.28413 12.0327 2.3227 11.9971 2.29426L11.7223 2.07502L11.4475 2.29426C11.4119 2.32264 11.3644 2.28413 11.3776 2.23762L11.4795 1.87819L11.2078 1.65419C11.1726 1.62514 11.1907 1.56294 11.2345 1.56251L11.5723 1.55965L11.6791 1.20198C11.6929 1.15565 11.7515 1.15565 11.7654 1.20198Z" fill="#F5F5F5"/>
<path d="M11.7654 3.07294L11.8723 3.4306L12.2101 3.43347C12.2538 3.4339 12.2719 3.49615 12.2368 3.52515L11.965 3.74914L12.067 4.10858C12.0802 4.15509 12.0327 4.19366 11.9971 4.16522L11.7223 3.94598L11.4475 4.16522C11.4119 4.1936 11.3644 4.15509 11.3776 4.10858L11.4795 3.74914L11.2078 3.52515C11.1726 3.49609 11.1907 3.4339 11.2345 3.43347L11.5723 3.4306L11.6791 3.07294C11.6929 3.02667 11.7515 3.02667 11.7654 3.07294Z" fill="#F5F5F5"/>
<path d="M11.7654 4.94391L11.8723 5.30157L12.2101 5.30444C12.2538 5.30487 12.2719 5.36713 12.2368 5.39612L11.965 5.62012L12.067 5.97955C12.0802 6.02606 12.0327 6.06464 11.9971 6.03619L11.7223 5.81696L11.4475 6.03619C11.4119 6.06458 11.3644 6.02606 11.3776 5.97955L11.4795 5.62012L11.2078 5.39612C11.1726 5.36707 11.1907 5.30487 11.2345 5.30444L11.5723 5.30157L11.6791 4.94391C11.6929 4.89764 11.7515 4.89764 11.7654 4.94391Z" fill="#F5F5F5"/>
<path d="M11.7654 6.8149L11.8723 7.17256L12.2101 7.17543C12.2538 7.17586 12.2719 7.23811 12.2368 7.2671L11.965 7.4911L12.067 7.85054C12.0802 7.89705 12.0327 7.93562 11.9971 7.90718L11.7223 7.68794L11.4475 7.90718C11.4119 7.93556 11.3644 7.89705 11.3776 7.85054L11.4795 7.4911L11.2078 7.2671C11.1726 7.23805 11.1907 7.17586 11.2345 7.17543L11.5723 7.17256L11.6791 6.8149C11.6929 6.76857 11.7515 6.76857 11.7654 6.8149Z" fill="#F5F5F5"/>
<path d="M11.7654 8.68588L11.8723 9.04355L12.2101 9.04642C12.2538 9.04684 12.2719 9.1091 12.2368 9.13809L11.965 9.36209L12.067 9.72152C12.0802 9.76803 12.0327 9.80661 11.9971 9.77816L11.7223 9.55893L11.4475 9.77816C11.4119 9.80655 11.3644 9.76803 11.3776 9.72152L11.4795 9.36209L11.2078 9.13809C11.1726 9.10904 11.1907 9.04684 11.2345 9.04642L11.5723 9.04355L11.6791 8.68588C11.6929 8.6395 11.7515 8.6395 11.7654 8.68588Z" fill="#F5F5F5"/>
</g>
<defs>
<clipPath id="clip0_224_9583">
<rect width="28" height="20" rx="1" fill="white"/>
</clipPath>
</defs>
</svg>
