<svg width="398" height="276" viewBox="0 0 398 276" fill="none" xmlns="http://www.w3.org/2000/svg">
<ellipse cx="211.001" cy="17.6673" rx="20" ry="17.6673" fill="#2899E5"/>
<path d="M241.32 138.936C244.374 143.22 243.109 149.255 238.224 151.21C231.205 154.019 223.648 155.634 215.93 155.945C204.873 156.39 193.885 154.144 184.102 149.437C174.319 144.731 166.094 137.735 160.278 129.172C154.462 120.61 151.264 110.791 151.016 100.729C150.767 90.6667 153.477 80.7269 158.865 71.9355C164.253 63.1441 172.124 55.8198 181.665 50.7189C191.206 45.6181 202.071 42.9255 213.139 42.9193C220.901 42.9149 228.565 44.2317 235.744 46.7742C240.672 48.5198 242.195 54.4518 239.362 58.8465C236.842 62.7547 231.762 63.984 227.329 62.5777C222.79 61.1375 217.998 60.3945 213.151 60.3972C205.505 60.4015 197.998 62.2617 191.406 65.7858C184.814 69.3099 179.377 74.37 175.654 80.4438C171.932 86.5176 170.06 93.3848 170.231 100.336C170.403 107.288 172.612 114.072 176.63 119.988C180.649 125.903 186.331 130.736 193.09 133.988C199.849 137.24 207.44 138.792 215.079 138.484C219.913 138.289 224.655 137.354 229.112 135.735C233.487 134.146 238.618 135.146 241.32 138.936Z" fill="#2899E5"/>
<rect x="182.999" y="90.0369" width="56" height="18.8468" rx="9.4234" fill="#FF7E1C"/>
<path d="M70.9027 225H37.9987V176.976H70.9027V184.392H46.4227V196.776H70.3987V204.192H46.4227V217.584H70.9027V225ZM96.6174 225H88.4814L74.2974 190.224H82.4334L92.5854 216.288L102.737 190.224H110.801L96.6174 225ZM131.676 225.864C121.164 225.864 113.46 218.592 113.46 207.576C113.46 197.496 120.804 189.36 131.1 189.36C141.54 189.36 148.164 197.28 148.164 208.224V210.096H121.38C121.956 215.28 125.844 219.672 132.396 219.672C135.852 219.672 139.812 218.304 142.332 215.784L145.788 220.752C142.26 224.064 137.148 225.864 131.676 225.864ZM140.892 204.696C140.676 200.592 137.868 195.552 131.028 195.552C124.62 195.552 121.596 200.52 121.308 204.696H140.892ZM186.73 225H179.17V203.256C179.17 197.784 176.362 196.056 172.114 196.056C168.298 196.056 164.986 198.36 163.186 200.664V225H155.626V190.224H163.186V194.904C165.49 192.168 170.026 189.36 175.498 189.36C182.986 189.36 186.73 193.392 186.73 200.52V225ZM207.06 225.864C201.156 225.864 198.132 222.696 198.132 216.864V196.776H192.372V190.224H198.132V180.72H205.692V190.224H212.748V196.776H205.692V214.992C205.692 217.368 206.844 219.168 209.004 219.168C210.444 219.168 211.74 218.52 212.316 217.872L214.116 223.632C212.748 224.856 210.516 225.864 207.06 225.864ZM242.869 225.864C228.685 225.864 217.669 215.784 217.669 201.024C217.669 186.192 228.685 176.184 242.869 176.184C252.517 176.184 258.565 181.152 262.093 186.912L254.965 190.656C252.661 186.624 247.981 183.672 242.869 183.672C233.365 183.672 226.309 190.872 226.309 201.024C226.309 211.032 233.365 218.376 242.869 218.376C247.981 218.376 252.661 215.352 254.965 211.392L262.165 214.992C258.493 220.752 252.517 225.864 242.869 225.864ZM284.387 225.864C273.299 225.864 266.531 217.512 266.531 207.576C266.531 197.568 273.299 189.36 284.387 189.36C295.475 189.36 302.243 197.568 302.243 207.576C302.243 217.512 295.475 225.864 284.387 225.864ZM284.387 219.168C290.867 219.168 294.395 213.768 294.395 207.576C294.395 201.456 290.867 196.056 284.387 196.056C277.979 196.056 274.379 201.456 274.379 207.576C274.379 213.768 277.979 219.168 284.387 219.168ZM360.218 225H352.658V202.32C352.658 198.576 351.002 196.056 346.898 196.056C343.514 196.056 340.346 198.36 338.834 200.664V225H331.274V202.32C331.274 198.576 329.69 196.056 325.586 196.056C322.202 196.056 319.106 198.432 317.522 200.664V225H309.962V190.224H317.522V194.904C319.034 192.816 323.57 189.36 328.898 189.36C334.082 189.36 337.25 191.952 338.402 195.696C340.346 192.6 344.954 189.36 350.21 189.36C356.546 189.36 360.218 192.816 360.218 199.872V225Z" fill="#262626"/>
<path d="M145.167 273.48C142.991 273.48 140.991 273.192 139.167 272.616C137.375 272.008 135.935 271.016 134.847 269.64C133.791 268.264 133.263 266.392 133.263 264.024C133.263 263.896 133.263 263.752 133.263 263.592C133.263 263.432 133.279 263.288 133.311 263.16H135.759C135.727 263.384 135.711 263.608 135.711 263.832C135.711 264.024 135.711 264.232 135.711 264.456C135.711 266.12 136.127 267.448 136.959 268.44C137.791 269.4 138.911 270.104 140.319 270.552C141.727 270.968 143.279 271.176 144.975 271.176C146.703 271.176 148.271 270.968 149.679 270.552C151.087 270.136 152.207 269.416 153.039 268.392C153.871 267.336 154.287 265.912 154.287 264.12C154.287 262.648 153.919 261.48 153.183 260.616C152.447 259.72 151.471 259.016 150.255 258.504C149.071 257.992 147.759 257.56 146.319 257.208C144.879 256.824 143.439 256.44 141.999 256.056C140.591 255.672 139.279 255.176 138.063 254.568C136.879 253.928 135.919 253.08 135.183 252.024C134.447 250.936 134.079 249.544 134.079 247.848C134.079 245.96 134.575 244.408 135.567 243.192C136.591 241.976 137.935 241.08 139.599 240.504C141.263 239.896 143.055 239.592 144.975 239.592C146.991 239.592 148.815 239.88 150.447 240.456C152.111 241.032 153.423 241.96 154.383 243.24C155.375 244.488 155.871 246.152 155.871 248.232V248.856H153.471V247.8C153.471 246.456 153.087 245.352 152.319 244.488C151.551 243.624 150.527 242.984 149.247 242.568C147.999 242.12 146.591 241.896 145.023 241.896C143.487 241.896 142.079 242.088 140.799 242.472C139.519 242.856 138.495 243.48 137.727 244.344C136.991 245.208 136.623 246.36 136.623 247.8C136.623 249.112 136.991 250.168 137.727 250.968C138.463 251.768 139.423 252.408 140.607 252.888C141.823 253.368 143.151 253.784 144.591 254.136C146.031 254.488 147.455 254.888 148.863 255.336C150.303 255.752 151.615 256.296 152.799 256.968C154.015 257.64 154.991 258.536 155.727 259.656C156.463 260.776 156.831 262.216 156.831 263.976C156.831 266.312 156.287 268.184 155.199 269.592C154.143 270.968 152.735 271.96 150.975 272.568C149.215 273.176 147.279 273.48 145.167 273.48ZM172.29 273V260.232L160.482 240.072H163.506L173.634 257.592H173.778L184.05 240.072H186.69L174.882 260.232V273H172.29ZM215.647 273.144C215.167 273.144 214.623 273 214.015 272.712C213.439 272.424 212.943 271.832 212.527 270.936C212.111 270.04 211.903 268.696 211.903 266.904C211.903 264.792 211.663 263.128 211.183 261.912C210.703 260.696 210.095 259.8 209.359 259.224C208.655 258.616 207.967 258.232 207.295 258.072C206.623 257.912 206.095 257.832 205.711 257.832H195.103V273H192.511V240.072H206.383C207.951 240.072 209.375 240.392 210.655 241.032C211.967 241.672 213.023 242.584 213.823 243.768C214.623 244.92 215.023 246.328 215.023 247.992C215.023 249.304 214.767 250.52 214.255 251.64C213.743 252.76 213.055 253.736 212.191 254.568C211.327 255.4 210.367 256.04 209.311 256.488V256.728C209.311 256.728 209.567 256.824 210.079 257.016C210.591 257.176 211.183 257.56 211.855 258.168C212.527 258.744 213.119 259.64 213.631 260.856C214.143 262.04 214.399 263.64 214.399 265.656C214.399 267.128 214.463 268.28 214.591 269.112C214.751 269.912 214.943 270.504 215.167 270.888C215.391 271.24 215.647 271.48 215.935 271.608C216.255 271.736 216.559 271.88 216.847 272.04V272.952C216.847 272.952 216.735 272.984 216.511 273.048C216.287 273.112 215.999 273.144 215.647 273.144ZM195.103 255.528H206.047C207.231 255.528 208.303 255.176 209.263 254.472C210.255 253.768 211.039 252.856 211.615 251.736C212.191 250.616 212.479 249.432 212.479 248.184C212.479 246.296 211.871 244.856 210.655 243.864C209.471 242.872 207.935 242.376 206.047 242.376H195.103V255.528ZM223.179 273V270.696H226.971V242.376H223.179V240.072H233.355V242.376H229.563V270.696H233.355V273H223.179ZM237.457 273L251.089 240.072H253.489L267.121 273H264.289L260.881 264.84H243.505L240.145 273H237.457ZM244.465 262.488H259.921L252.289 243.624H252.097L244.465 262.488Z" fill="#4F4F4F"/>
</svg>
