<svg width="397" height="276" viewBox="0 0 397 276" fill="none" xmlns="http://www.w3.org/2000/svg">
<ellipse cx="210.501" cy="17.6673" rx="20" ry="17.6673" fill="#2899E5"/>
<path d="M240.82 138.936C243.874 143.22 242.609 149.255 237.724 151.21C230.705 154.019 223.148 155.634 215.43 155.945C204.373 156.39 193.385 154.144 183.602 149.437C173.819 144.731 165.594 137.735 159.778 129.172C153.962 120.61 150.764 110.79 150.516 100.729C150.267 90.6667 152.977 80.7269 158.365 71.9355C163.753 63.1441 171.624 55.8198 181.165 50.7189C190.706 45.618 201.571 42.9255 212.639 42.9193C220.401 42.9149 228.065 44.2317 235.244 46.7742C240.172 48.5197 241.695 54.4518 238.862 58.8464C236.342 62.7547 231.262 63.984 226.829 62.5777C222.29 61.1375 217.498 60.3945 212.651 60.3972C205.005 60.4015 197.498 62.2617 190.906 65.7858C184.314 69.3099 178.877 74.37 175.154 80.4438C171.432 86.5176 169.56 93.3848 169.731 100.336C169.903 107.288 172.112 114.072 176.13 119.988C180.149 125.903 185.831 130.736 192.59 133.988C199.349 137.239 206.94 138.792 214.579 138.484C219.413 138.289 224.155 137.354 228.612 135.735C232.987 134.146 238.118 135.146 240.82 138.936Z" fill="#2899E5"/>
<rect x="182.499" y="90.0369" width="56" height="18.8468" rx="9.4234" fill="#FF7E1C"/>
<path d="M70.4027 225H37.4987V176.976H70.4027V184.392H45.9227V196.776H69.8987V204.192H45.9227V217.584H70.4027V225ZM96.1174 225H87.9814L73.7974 190.224H81.9334L92.0854 216.288L102.237 190.224H110.301L96.1174 225ZM131.176 225.864C120.664 225.864 112.96 218.592 112.96 207.576C112.96 197.496 120.304 189.36 130.6 189.36C141.04 189.36 147.664 197.28 147.664 208.224V210.096H120.88C121.456 215.28 125.344 219.672 131.896 219.672C135.352 219.672 139.312 218.304 141.832 215.784L145.288 220.752C141.76 224.064 136.648 225.864 131.176 225.864ZM140.392 204.696C140.176 200.592 137.368 195.552 130.528 195.552C124.12 195.552 121.096 200.52 120.808 204.696H140.392ZM186.23 225H178.67V203.256C178.67 197.784 175.862 196.056 171.614 196.056C167.798 196.056 164.486 198.36 162.686 200.664V225H155.126V190.224H162.686V194.904C164.99 192.168 169.526 189.36 174.998 189.36C182.486 189.36 186.23 193.392 186.23 200.52V225ZM206.56 225.864C200.656 225.864 197.632 222.696 197.632 216.864V196.776H191.872V190.224H197.632V180.72H205.192V190.224H212.248V196.776H205.192V214.992C205.192 217.368 206.344 219.168 208.504 219.168C209.944 219.168 211.24 218.52 211.816 217.872L213.616 223.632C212.248 224.856 210.016 225.864 206.56 225.864ZM242.369 225.864C228.185 225.864 217.169 215.784 217.169 201.024C217.169 186.192 228.185 176.184 242.369 176.184C252.017 176.184 258.065 181.152 261.593 186.912L254.465 190.656C252.161 186.624 247.481 183.672 242.369 183.672C232.865 183.672 225.809 190.872 225.809 201.024C225.809 211.032 232.865 218.376 242.369 218.376C247.481 218.376 252.161 215.352 254.465 211.392L261.665 214.992C257.993 220.752 252.017 225.864 242.369 225.864ZM283.887 225.864C272.799 225.864 266.031 217.512 266.031 207.576C266.031 197.568 272.799 189.36 283.887 189.36C294.975 189.36 301.743 197.568 301.743 207.576C301.743 217.512 294.975 225.864 283.887 225.864ZM283.887 219.168C290.367 219.168 293.895 213.768 293.895 207.576C293.895 201.456 290.367 196.056 283.887 196.056C277.479 196.056 273.879 201.456 273.879 207.576C273.879 213.768 277.479 219.168 283.887 219.168ZM359.718 225H352.158V202.32C352.158 198.576 350.502 196.056 346.398 196.056C343.014 196.056 339.846 198.36 338.334 200.664V225H330.774V202.32C330.774 198.576 329.19 196.056 325.086 196.056C321.702 196.056 318.606 198.432 317.022 200.664V225H309.462V190.224H317.022V194.904C318.534 192.816 323.07 189.36 328.398 189.36C333.582 189.36 336.75 191.952 337.902 195.696C339.846 192.6 344.454 189.36 349.71 189.36C356.046 189.36 359.718 192.816 359.718 199.872V225Z" fill="#E7E7E7"/>
<path d="M144.667 273.48C142.491 273.48 140.491 273.192 138.667 272.616C136.875 272.008 135.435 271.016 134.347 269.64C133.291 268.264 132.763 266.392 132.763 264.024C132.763 263.896 132.763 263.752 132.763 263.592C132.763 263.432 132.779 263.288 132.811 263.16H135.259C135.227 263.384 135.211 263.608 135.211 263.832C135.211 264.024 135.211 264.232 135.211 264.456C135.211 266.12 135.627 267.448 136.459 268.44C137.291 269.4 138.411 270.104 139.819 270.552C141.227 270.968 142.779 271.176 144.475 271.176C146.203 271.176 147.771 270.968 149.179 270.552C150.587 270.136 151.707 269.416 152.539 268.392C153.371 267.336 153.787 265.912 153.787 264.12C153.787 262.648 153.419 261.48 152.683 260.616C151.947 259.72 150.971 259.016 149.755 258.504C148.571 257.992 147.259 257.56 145.819 257.208C144.379 256.824 142.939 256.44 141.499 256.056C140.091 255.672 138.779 255.176 137.563 254.568C136.379 253.928 135.419 253.08 134.683 252.024C133.947 250.936 133.579 249.544 133.579 247.848C133.579 245.96 134.075 244.408 135.067 243.192C136.091 241.976 137.435 241.08 139.099 240.504C140.763 239.896 142.555 239.592 144.475 239.592C146.491 239.592 148.315 239.88 149.947 240.456C151.611 241.032 152.923 241.96 153.883 243.24C154.875 244.488 155.371 246.152 155.371 248.232V248.856H152.971V247.8C152.971 246.456 152.587 245.352 151.819 244.488C151.051 243.624 150.027 242.984 148.747 242.568C147.499 242.12 146.091 241.896 144.523 241.896C142.987 241.896 141.579 242.088 140.299 242.472C139.019 242.856 137.995 243.48 137.227 244.344C136.491 245.208 136.123 246.36 136.123 247.8C136.123 249.112 136.491 250.168 137.227 250.968C137.963 251.768 138.923 252.408 140.107 252.888C141.323 253.368 142.651 253.784 144.091 254.136C145.531 254.488 146.955 254.888 148.363 255.336C149.803 255.752 151.115 256.296 152.299 256.968C153.515 257.64 154.491 258.536 155.227 259.656C155.963 260.776 156.331 262.216 156.331 263.976C156.331 266.312 155.787 268.184 154.699 269.592C153.643 270.968 152.235 271.96 150.475 272.568C148.715 273.176 146.779 273.48 144.667 273.48ZM171.79 273V260.232L159.982 240.072H163.006L173.134 257.592H173.278L183.55 240.072H186.19L174.382 260.232V273H171.79ZM215.147 273.144C214.667 273.144 214.123 273 213.515 272.712C212.939 272.424 212.443 271.832 212.027 270.936C211.611 270.04 211.403 268.696 211.403 266.904C211.403 264.792 211.163 263.128 210.683 261.912C210.203 260.696 209.595 259.8 208.859 259.224C208.155 258.616 207.467 258.232 206.795 258.072C206.123 257.912 205.595 257.832 205.211 257.832H194.603V273H192.011V240.072H205.883C207.451 240.072 208.875 240.392 210.155 241.032C211.467 241.672 212.523 242.584 213.323 243.768C214.123 244.92 214.523 246.328 214.523 247.992C214.523 249.304 214.267 250.52 213.755 251.64C213.243 252.76 212.555 253.736 211.691 254.568C210.827 255.4 209.867 256.04 208.811 256.488V256.728C208.811 256.728 209.067 256.824 209.579 257.016C210.091 257.176 210.683 257.56 211.355 258.168C212.027 258.744 212.619 259.64 213.131 260.856C213.643 262.04 213.899 263.64 213.899 265.656C213.899 267.128 213.963 268.28 214.091 269.112C214.251 269.912 214.443 270.504 214.667 270.888C214.891 271.24 215.147 271.48 215.435 271.608C215.755 271.736 216.059 271.88 216.347 272.04V272.952C216.347 272.952 216.235 272.984 216.011 273.048C215.787 273.112 215.499 273.144 215.147 273.144ZM194.603 255.528H205.547C206.731 255.528 207.803 255.176 208.763 254.472C209.755 253.768 210.539 252.856 211.115 251.736C211.691 250.616 211.979 249.432 211.979 248.184C211.979 246.296 211.371 244.856 210.155 243.864C208.971 242.872 207.435 242.376 205.547 242.376H194.603V255.528ZM222.679 273V270.696H226.471V242.376H222.679V240.072H232.855V242.376H229.063V270.696H232.855V273H222.679ZM236.957 273L250.589 240.072H252.989L266.621 273H263.789L260.381 264.84H243.005L239.645 273H236.957ZM243.965 262.488H259.421L251.789 243.624H251.597L243.965 262.488Z" fill="#B0B0B0"/>
</svg>
