<svg width="48" height="48" viewBox="0 0 48 48" fill="none" xmlns="http://www.w3.org/2000/svg">
<path d="M0 24C0 37.2548 10.7452 48 24 48C37.2548 48 48 37.2548 48 24C48 10.7452 37.2548 0 24 0C10.7452 0 0 10.7452 0 24Z" fill="#25D366"/>
<path fill-rule="evenodd" clip-rule="evenodd" d="M35.2 12.6C32.2 9.6 28.2 8 24 8C15.2 8 8 15.2 8 24C8 26.8 8.80001 29.6 10.2 32L8 40L16.4 37.8C18.8 39 21.4 39.8 24 39.8C32.8 39.8 40 32.6 40 23.8C40 19.6 38.2 15.6 35.2 12.6ZM24 37.2C21.6 37.2 19.2 36.6 17.2 35.4L16.8 35.2L11.8 36.6L13.2 31.8L12.8 31.2C11.4 29 10.8 26.6 10.8 24.2C10.8 17 16.8 11 24 11C27.6 11 30.8 12.4 33.4 14.8C36 17.4 37.2 20.6 37.2 24.2C37.2 31.2 31.4 37.2 24 37.2ZM31.2 27.2C30.8 27 28.8 26 28.4 26C28 25.8 27.8 25.8 27.6 26.2C27.4 26.6 26.6 27.4 26.4 27.8C26.2 28 26 28 25.6 28C25.2 27.8 24 27.4 22.4 26C21.2 25 20.4 23.6 20.2 23.2C20 22.8 20.2 22.6 20.4 22.4C20.6 22.2 20.8 22 21 21.8C21.2 21.6 21.2 21.4 21.4 21.2C21.6 21 21.4 20.8 21.4 20.6C21.4 20.4 20.6 18.4 20.2 17.6C20 17 19.6 17 19.4 17C19.2 17 19 17 18.6 17C18.4 17 18 17 17.6 17.4C17.2 17.8 16.2 18.8 16.2 20.8C16.2 22.8 17.6 24.6 17.8 25C18 25.2 20.6 29.4 24.6 31C28 32.4 28.6 32 29.4 32C30.2 32 31.8 31 32 30.2C32.4 29.2 32.4 28.4 32.2 28.4C32 27.4 31.6 27.4 31.2 27.2Z" fill="white"/>
</svg>
