<svg width="1920" height="374" viewBox="0 0 1920 374" fill="none" xmlns="http://www.w3.org/2000/svg">
<g clip-path="url(#clip0_359_1683)">
<rect width="1920" height="374" fill="url(#paint0_linear_359_1683)"/>
<g opacity="0.4">
<ellipse cx="1900.19" cy="12.7226" rx="52.7273" ry="52.7226" fill="#0B2232"/>
<path d="M1981.67 375.548C1989.14 387.405 1985.87 403.272 1973.15 409.158C1954.31 417.878 1933.97 422.887 1913.18 423.835C1884.03 425.164 1855.06 418.46 1829.27 404.415C1803.48 390.371 1781.79 369.494 1766.46 343.941C1751.13 318.389 1742.7 289.086 1742.04 259.059C1741.39 229.033 1748.53 199.37 1762.74 173.135C1776.94 146.9 1797.69 125.043 1822.84 109.821C1848 94.5989 1876.64 86.5638 1905.82 86.5452C1926.6 86.532 1947.12 90.5845 1966.3 98.4046C1979.3 103.706 1983.29 119.445 1976.34 131.646C1969.14 144.289 1952.95 148.179 1939.07 143.807C1928.35 140.43 1917.16 138.695 1905.85 138.703C1885.7 138.716 1865.9 144.267 1848.53 154.783C1831.15 165.3 1816.81 180.4 1807 198.526C1797.18 216.651 1792.25 237.144 1792.7 257.889C1793.15 278.634 1798.98 298.878 1809.57 316.532C1820.17 334.186 1835.15 348.609 1852.97 358.312C1870.78 368.015 1890.8 372.647 1910.94 371.728C1922.24 371.213 1933.35 368.959 1943.92 365.086C1957.58 360.08 1973.92 363.24 1981.67 375.548Z" fill="#0B2232"/>
<rect x="1826.36" y="227.152" width="147.637" height="56.2425" rx="28.1212" fill="#C74307"/>
</g>
<g opacity="0.4">
<ellipse cx="52.7273" cy="52.7226" rx="52.7273" ry="52.7226" transform="matrix(-1 0 0 1 72.6323 -40)" fill="#0B2232"/>
<path d="M-61.5828 375.548C-69.0502 387.405 -65.7774 403.272 -53.061 409.158C-34.2201 417.878 -13.8764 422.887 6.91132 423.835C36.0619 425.164 65.0288 418.46 90.821 404.415C116.613 390.371 138.296 369.494 153.63 343.941C168.964 318.389 177.394 289.086 178.049 259.059C178.703 229.033 171.56 199.37 157.355 173.135C143.151 146.9 122.4 125.043 97.2462 109.821C72.0923 94.5989 43.4468 86.5638 14.2677 86.5452C-6.51173 86.532 -27.0254 90.5845 -46.2046 98.4046C-59.206 103.706 -63.1967 119.445 -56.2477 131.646C-49.0466 144.289 -32.8563 148.179 -18.9787 143.807C-8.26126 140.43 2.93059 138.695 14.2363 138.703C34.3955 138.716 54.186 144.267 71.5643 154.783C88.9425 165.3 103.279 180.4 113.092 198.526C122.906 216.651 127.841 237.144 127.389 257.889C126.936 278.634 121.112 298.878 110.518 316.532C99.9245 334.186 84.9445 348.609 67.1253 358.312C49.306 368.015 29.2934 372.647 9.15398 371.728C-2.14967 371.213 -13.2633 368.959 -23.8302 365.086C-37.4863 360.08 -53.8316 363.24 -61.5828 375.548Z" fill="#0B2232"/>
<rect width="147.637" height="56.2425" rx="28.1212" transform="matrix(-1 0 0 1 93.7261 227.152)" fill="#C74307"/>
</g>
</g>
<defs>
<linearGradient id="paint0_linear_359_1683" x1="960" y1="0" x2="960" y2="374" gradientUnits="userSpaceOnUse">
<stop stop-color="#84C6F5"/>
<stop offset="1" stop-color="#2899E5"/>
</linearGradient>
<clipPath id="clip0_359_1683">
<rect width="1920" height="374" fill="white"/>
</clipPath>
</defs>
</svg>
